<mxfile host="app.diagrams.net" modified="2024-06-19T15:04:00.135Z" agent="Mozilla/5.0 (Macintosh; Intel Mac OS X 10_15_7) AppleWebKit/605.1.15 (KHTML, like Gecko) Version/17.4.1 Safari/605.1.15" etag="aQuGWgD4NWLPbUyTIw8g" version="24.5.5" type="device">
  <diagram name="Page-1" id="NRhTOsz4kPfowMId9z4f">
    <mxGraphModel dx="1114" dy="1031" grid="1" gridSize="10" guides="1" tooltips="1" connect="1" arrows="1" fold="1" page="1" pageScale="1" pageWidth="827" pageHeight="1169" math="0" shadow="0">
      <root>
        <mxCell id="0" />
        <mxCell id="1" parent="0" />
        <mxCell id="i1bSbOd74X1t0O-cn9Xz-1" value="" style="sketch=0;outlineConnect=0;fontColor=#232F3E;gradientColor=none;fillColor=#232F3D;strokeColor=none;dashed=0;verticalLabelPosition=bottom;verticalAlign=top;align=center;html=1;fontSize=12;fontStyle=0;aspect=fixed;pointerEvents=1;shape=mxgraph.aws4.user;shadow=0;" vertex="1" parent="1">
          <mxGeometry x="120" y="160" width="170" height="170" as="geometry" />
        </mxCell>
        <mxCell id="i1bSbOd74X1t0O-cn9Xz-10" style="edgeStyle=orthogonalEdgeStyle;rounded=0;orthogonalLoop=1;jettySize=auto;html=1;exitX=1;exitY=0.5;exitDx=0;exitDy=0;" edge="1" parent="1" source="i1bSbOd74X1t0O-cn9Xz-2" target="i1bSbOd74X1t0O-cn9Xz-7">
          <mxGeometry relative="1" as="geometry" />
        </mxCell>
        <mxCell id="i1bSbOd74X1t0O-cn9Xz-2" value="" style="rounded=0;whiteSpace=wrap;html=1;" vertex="1" parent="1">
          <mxGeometry x="100" y="470" width="205" height="150" as="geometry" />
        </mxCell>
        <mxCell id="i1bSbOd74X1t0O-cn9Xz-3" value="&lt;b&gt;Busy user&lt;/b&gt;&lt;div&gt;[&lt;i&gt;Person&lt;/i&gt;]&lt;/div&gt;&lt;div&gt;User of the to-do app&lt;/div&gt;" style="text;html=1;align=center;verticalAlign=middle;whiteSpace=wrap;rounded=0;" vertex="1" parent="1">
          <mxGeometry x="165" y="276" width="80" height="30" as="geometry" />
        </mxCell>
        <mxCell id="i1bSbOd74X1t0O-cn9Xz-4" value="Records tasks and marks them complete using" style="text;html=1;align=center;verticalAlign=middle;whiteSpace=wrap;rounded=0;" vertex="1" parent="1">
          <mxGeometry x="110" y="380" width="80" height="30" as="geometry" />
        </mxCell>
        <mxCell id="i1bSbOd74X1t0O-cn9Xz-5" value="" style="endArrow=classic;html=1;rounded=0;entryX=0.5;entryY=0;entryDx=0;entryDy=0;" edge="1" parent="1" target="i1bSbOd74X1t0O-cn9Xz-2">
          <mxGeometry width="50" height="50" relative="1" as="geometry">
            <mxPoint x="204.5" y="330" as="sourcePoint" />
            <mxPoint x="204.5" y="400" as="targetPoint" />
          </mxGeometry>
        </mxCell>
        <mxCell id="i1bSbOd74X1t0O-cn9Xz-6" value="&lt;b&gt;To-do app&lt;/b&gt;&lt;br&gt;&lt;div&gt;[&lt;i&gt;Software system&lt;/i&gt;]&lt;/div&gt;&lt;div&gt;Allows users to create/delete tasks and make them as complete/incomplete&lt;/div&gt;" style="text;html=1;align=center;verticalAlign=middle;whiteSpace=wrap;rounded=0;" vertex="1" parent="1">
          <mxGeometry x="120" y="500" width="160" height="80" as="geometry" />
        </mxCell>
        <mxCell id="i1bSbOd74X1t0O-cn9Xz-7" value="" style="rounded=0;whiteSpace=wrap;html=1;" vertex="1" parent="1">
          <mxGeometry x="460" y="470" width="205" height="150" as="geometry" />
        </mxCell>
        <mxCell id="i1bSbOd74X1t0O-cn9Xz-8" value="&lt;b&gt;Trello&lt;/b&gt;&lt;br&gt;&lt;div&gt;[&lt;i&gt;Software system&lt;/i&gt;]&lt;/div&gt;&lt;div&gt;Atlassian project management board - stores users tasks and their status&lt;/div&gt;" style="text;html=1;align=center;verticalAlign=middle;whiteSpace=wrap;rounded=0;" vertex="1" parent="1">
          <mxGeometry x="482.5" y="505" width="160" height="80" as="geometry" />
        </mxCell>
        <mxCell id="i1bSbOd74X1t0O-cn9Xz-11" value="Gets tasks status from" style="text;html=1;align=center;verticalAlign=middle;whiteSpace=wrap;rounded=0;" vertex="1" parent="1">
          <mxGeometry x="340" y="505" width="80" height="30" as="geometry" />
        </mxCell>
      </root>
    </mxGraphModel>
  </diagram>
</mxfile>
